<svg width="166" height="31" viewBox="0 0 166 31" fill="none" xmlns="http://www.w3.org/2000/svg">
<path d="M42.0294 10.8451C42.0294 10.8804 42.0294 10.9686 42.0294 11.1096C42.0294 11.2507 42.0294 11.427 42.0294 11.6386C42.0294 11.8502 42.0206 12.0794 42.003 12.3262C42.003 12.5731 42.003 12.8111 42.003 13.0404H42.0823C42.5055 12.2822 43.0697 11.6915 43.775 11.2683C44.4803 10.8451 45.3267 10.6335 46.3141 10.6335C47.8657 10.6335 49.0647 11.1096 49.9111 12.0618C50.775 12.9963 51.207 14.257 51.207 15.8439V25.1008H47.0811V16.6373C47.0811 15.8615 46.8783 15.2444 46.4728 14.7859C46.0849 14.3099 45.503 14.0718 44.7272 14.0718C43.9161 14.0718 43.2637 14.3628 42.77 14.9446C42.2763 15.5265 42.0294 16.2671 42.0294 17.1663V25.1008H37.877V5.42321H42.0294V10.8451ZM53.8126 5.42321H58.0179V9.04664H53.8126V5.42321ZM53.8391 11.0303H57.9915V25.1008H53.8391V11.0303ZM66.1043 25.5505C65.1874 25.5505 64.3587 25.3829 63.6181 25.0479C62.8776 24.6953 62.2428 24.2016 61.7139 23.5668C61.1849 22.9144 60.7794 22.1298 60.4972 21.2129C60.2151 20.2784 60.0741 19.2293 60.0741 18.0656C60.0741 16.99 60.2151 16.0026 60.4972 15.1033C60.797 14.1865 61.2113 13.4018 61.7403 12.7494C62.2693 12.0794 62.904 11.5592 63.6446 11.189C64.4028 10.8187 65.2403 10.6335 66.1572 10.6335C67.127 10.6335 67.9469 10.8451 68.6169 11.2683C69.2869 11.6739 69.86 12.2469 70.336 12.9875H70.3889C70.3537 12.5467 70.3272 12.0441 70.3096 11.4799C70.292 10.9157 70.2831 10.3338 70.2831 9.7343V5.42321H74.4356V25.1008H70.4418V23.0379H70.3889C69.9834 23.9018 69.4015 24.5366 68.6433 24.9421C67.9028 25.3477 67.0564 25.5505 66.1043 25.5505ZM67.2151 22.218C68.2202 22.218 69.0048 21.8389 69.569 21.0807C70.1333 20.3049 70.4154 19.2998 70.4154 18.0656C70.4154 17.4484 70.3449 16.8754 70.2038 16.3464C70.0804 15.8174 69.8864 15.3678 69.6219 14.9975C69.3575 14.6096 69.0224 14.3099 68.6169 14.0983C68.229 13.8867 67.7706 13.7809 67.2416 13.7809C66.2542 13.7809 65.5136 14.1776 65.0199 14.9711C64.5438 15.7469 64.3058 16.7696 64.3058 18.0391C64.3058 19.3086 64.5438 20.3225 65.0199 21.0807C65.5136 21.8389 66.2454 22.218 67.2151 22.218ZM82.5571 25.5505C81.6402 25.5505 80.8115 25.3829 80.0709 25.0479C79.3304 24.6953 78.6956 24.2016 78.1666 23.5668C77.6377 22.9144 77.2321 22.1298 76.95 21.2129C76.6679 20.2784 76.5268 19.2293 76.5268 18.0656C76.5268 16.99 76.6679 16.0026 76.95 15.1033C77.2498 14.1865 77.6641 13.4018 78.1931 12.7494C78.7221 12.0794 79.3568 11.5592 80.0974 11.189C80.8556 10.8187 81.6931 10.6335 82.61 10.6335C83.5797 10.6335 84.3996 10.8451 85.0697 11.2683C85.7397 11.6739 86.3127 12.2469 86.7888 12.9875H86.8417C86.8065 12.5467 86.78 12.0441 86.7624 11.4799C86.7447 10.9157 86.7359 10.3338 86.7359 9.7343V5.42321H90.8883V25.1008H86.8946V23.0379H86.8417C86.4362 23.9018 85.8543 24.5366 85.0961 24.9421C84.3556 25.3477 83.5092 25.5505 82.5571 25.5505ZM83.6679 22.218C84.6729 22.218 85.4576 21.8389 86.0218 21.0807C86.586 20.3049 86.8682 19.2998 86.8682 18.0656C86.8682 17.4484 86.7976 16.8754 86.6566 16.3464C86.5332 15.8174 86.3392 15.3678 86.0747 14.9975C85.8102 14.6096 85.4752 14.3099 85.0697 14.0983C84.6818 13.8867 84.2233 13.7809 83.6944 13.7809C82.7069 13.7809 81.9664 14.1776 81.4727 14.9711C80.9966 15.7469 80.7586 16.7696 80.7586 18.0391C80.7586 19.3086 80.9966 20.3225 81.4727 21.0807C81.9664 21.8389 82.6981 22.218 83.6679 22.218ZM100.412 25.524C99.2655 25.524 98.234 25.3389 97.3171 24.9686C96.4003 24.5807 95.6156 24.0517 94.9632 23.3817C94.3285 22.7117 93.8348 21.927 93.4821 21.0278C93.1471 20.1285 92.9796 19.1499 92.9796 18.092C92.9796 17.0341 93.1559 16.0555 93.5086 15.1562C93.8612 14.2393 94.3549 13.4459 94.9897 12.7759C95.6244 12.1058 96.3826 11.5857 97.2642 11.2154C98.1459 10.8275 99.1245 10.6335 100.2 10.6335C101.205 10.6335 102.104 10.7922 102.898 11.1096C103.709 11.427 104.423 11.8678 105.04 12.432C105.834 13.2079 106.415 14.1688 106.786 15.3149C107.156 16.461 107.332 17.7305 107.315 19.1235H97.0527C97.1937 20.1814 97.5464 21.0101 98.1106 21.6096C98.6748 22.2091 99.4595 22.5089 100.465 22.5089C101.117 22.5089 101.646 22.3943 102.051 22.1651C102.475 21.9182 102.801 21.5744 103.03 21.1336H107.05C106.874 21.7507 106.592 22.3326 106.204 22.8792C105.834 23.4081 105.366 23.8754 104.802 24.2809C104.255 24.6688 103.612 24.9686 102.871 25.1802C102.131 25.4094 101.311 25.524 100.412 25.524ZM100.2 13.5693C99.2479 13.5693 98.525 13.8514 98.0313 14.4157C97.5375 14.9799 97.2202 15.7469 97.0791 16.7167H103.083C103.012 15.7293 102.721 14.9623 102.21 14.4157C101.699 13.8514 101.029 13.5693 100.2 13.5693ZM109.185 20.7633H113.575V25.1008H109.185V20.7633ZM116.112 11.0303H120.105V13.2255H120.185C120.643 12.3791 121.207 11.7356 121.877 11.2948C122.565 10.854 123.411 10.6335 124.416 10.6335C126.268 10.6335 127.555 11.524 128.278 13.3048H128.331C128.913 12.3527 129.574 11.6739 130.314 11.2683C131.073 10.8451 131.901 10.6335 132.801 10.6335C134.37 10.6335 135.551 11.1096 136.345 12.0618C137.138 12.9963 137.535 14.2482 137.535 15.8174V25.1008H133.409V16.5051C133.409 15.7293 133.224 15.1298 132.853 14.7066C132.501 14.2658 131.99 14.0454 131.319 14.0454C130.579 14.0454 129.988 14.3275 129.547 14.8917C129.124 15.456 128.913 16.1877 128.913 17.087V25.1008H124.76V16.5051C124.76 15.7293 124.584 15.1298 124.231 14.7066C123.896 14.2658 123.385 14.0454 122.697 14.0454C121.957 14.0454 121.366 14.3275 120.925 14.8917C120.484 15.456 120.264 16.1877 120.264 17.087V25.1008H116.112V11.0303ZM146.955 25.524C145.809 25.524 144.777 25.3389 143.86 24.9686C142.943 24.5807 142.159 24.0517 141.506 23.3817C140.871 22.7117 140.378 21.927 140.025 21.0278C139.69 20.1285 139.523 19.1499 139.523 18.092C139.523 17.0341 139.699 16.0555 140.052 15.1562C140.404 14.2393 140.898 13.4459 141.533 12.7759C142.167 12.1058 142.926 11.5857 143.807 11.2154C144.689 10.8275 145.667 10.6335 146.743 10.6335C147.748 10.6335 148.647 10.7922 149.441 11.1096C150.252 11.427 150.966 11.8678 151.583 12.432C152.377 13.2079 152.958 14.1688 153.329 15.3149C153.699 16.461 153.875 17.7305 153.858 19.1235H143.596C143.737 20.1814 144.089 21.0101 144.654 21.6096C145.218 22.2091 146.002 22.5089 147.008 22.5089C147.66 22.5089 148.189 22.3943 148.594 22.1651C149.018 21.9182 149.344 21.5744 149.573 21.1336H153.593C153.417 21.7507 153.135 22.3326 152.747 22.8792C152.377 23.4081 151.909 23.8754 151.345 24.2809C150.798 24.6688 150.155 24.9686 149.414 25.1802C148.674 25.4094 147.854 25.524 146.955 25.524ZM146.743 13.5693C145.791 13.5693 145.068 13.8514 144.574 14.4157C144.081 14.9799 143.763 15.7469 143.622 16.7167H149.626C149.555 15.7293 149.264 14.9623 148.753 14.4157C148.242 13.8514 147.572 13.5693 146.743 13.5693Z" fill="#221E1F"/>
<rect width="30.9399" height="30.9399" fill="#FEF208"/>
<rect x="4.71777" y="22.4918" width="21.5043" height="3.94977" fill="#221E1F"/>
</svg>
