<svg width="16" height="14" viewBox="0 0 16 14" fill="none" xmlns="http://www.w3.org/2000/svg">
<path d="M15.9525 7.84197L15.1133 5.40188C15.1088 5.37941 15.102 5.35742 15.093 5.33622L13.4093 0.431932C13.3645 0.305401 13.2785 0.195512 13.1638 0.117948C13.049 0.0403838 12.9113 -0.000891006 12.7702 1.45894e-05C12.6296 -0.000792337 12.4924 0.0410597 12.3787 0.119433C12.2651 0.197807 12.1809 0.308579 12.1387 0.435505L10.5338 5.10887H5.4687L3.8615 0.435505C3.81938 0.309018 3.73568 0.198562 3.62259 0.12023C3.5095 0.0418977 3.37293 -0.000219438 3.23279 1.45894e-05H3.22901C3.08785 3.78293e-05 2.95028 0.042178 2.83588 0.120442C2.72148 0.198706 2.63607 0.309109 2.5918 0.435951L0.906722 5.34605C0.906722 5.35051 0.902946 5.35409 0.90153 5.35855L0.0471925 7.84241C-0.0155854 8.02458 -0.0157341 8.22088 0.0467683 8.40314C0.109271 8.58539 0.231208 8.7442 0.395064 8.85677L7.77636 13.9321C7.84132 13.9766 7.91957 14.0004 7.99976 14C8.07996 13.9996 8.15794 13.975 8.2224 13.9299L15.6051 8.85677C15.769 8.74416 15.891 8.58525 15.9534 8.40289C16.0158 8.22053 16.0155 8.02414 15.9525 7.84197ZM4.91928 5.8262L6.97677 11.8186L2.03766 5.8262H4.91928ZM9.02577 11.8199L10.9988 6.07499L11.0837 5.8262H13.9677L9.49919 11.2433L9.02577 11.8199ZM12.7768 0.895561L14.2226 5.10887H11.3287L12.7768 0.895561ZM10.2889 5.82352L8.85537 9.99798L8.00009 12.4841L5.71462 5.82352H10.2889ZM3.22571 0.895561L4.6743 5.10887H1.7823L3.22571 0.895561ZM0.839225 8.2788C0.804407 8.25483 0.778521 8.22104 0.765289 8.18227C0.752058 8.14351 0.752163 8.10177 0.765591 8.06306L1.39997 6.21837L6.05257 11.8628L0.839225 8.2788ZM15.1614 8.2788L9.9476 11.8614L9.96506 11.84L14.6002 6.21837L15.2346 8.06217C15.2482 8.10089 15.2484 8.14269 15.2353 8.18155C15.2221 8.2204 15.1963 8.2543 15.1614 8.27835" fill="black"/>
</svg>
