<svg width="17" height="13" viewBox="0 0 17 13" fill="none" xmlns="http://www.w3.org/2000/svg">
<path d="M14.6164 3.23983C14.6265 3.38201 14.6265 3.52422 14.6265 3.6664C14.6265 8.0031 11.327 13 5.29654 13C3.43865 13 1.71277 12.4617 0.260986 11.5274C0.524956 11.5578 0.778738 11.568 1.05286 11.568C2.58584 11.568 3.99703 11.05 5.12394 10.1664C3.68231 10.1359 2.47418 9.19141 2.05793 7.8914C2.26099 7.92185 2.46403 7.94217 2.67725 7.94217C2.97165 7.94217 3.26609 7.90153 3.54019 7.83047C2.03765 7.52576 0.910708 6.20546 0.910708 4.61093V4.57032C1.34724 4.81407 1.8549 4.96641 2.39293 4.9867C1.50968 4.39763 0.93102 3.39217 0.93102 2.25466C0.93102 1.6453 1.09343 1.08671 1.37771 0.599204C2.99193 2.58983 5.41835 3.88981 8.13914 4.03202C8.08839 3.78827 8.05792 3.53438 8.05792 3.28047C8.05792 1.47264 9.51987 0 11.3371 0C12.2813 0 13.1341 0.396093 13.7331 1.03594C14.4742 0.893756 15.1848 0.619524 15.8143 0.243752C15.5706 1.00549 15.0529 1.64533 14.3727 2.05155C15.0326 1.98049 15.6722 1.79764 16.261 1.54376C15.8144 2.19373 15.256 2.77262 14.6164 3.23983Z" fill="#221E1F"/>
</svg>
